<svg width="29" height="30" viewBox="0 0 29 30" fill="none" xmlns="http://www.w3.org/2000/svg">
<rect y="0.5" width="29" height="29" rx="6" fill="#1FC434"/>
<path fill-rule="evenodd" clip-rule="evenodd" d="M14.9069 8.18098C14.9674 8.26578 15 8.36738 15 8.4716V23.0284C15 23.3045 14.7761 23.5284 14.5 23.5284C14.3958 23.5284 14.2942 23.4958 14.2094 23.4353L8 19H6C5.44772 19 5 18.5523 5 18V13.5C5 12.9477 5.44772 12.5 6 12.5H8L14.2094 8.06473C14.4341 7.90422 14.7464 7.95627 14.9069 8.18098ZM21.2548 7.88934C21.454 7.69808 21.7706 7.70451 21.9618 7.9037C23.8814 9.90288 24.9 12.4907 24.9 15.3282C24.9 18.0113 23.8519 20.5521 21.967 22.5895C21.7795 22.7922 21.4632 22.8046 21.2605 22.617C21.0578 22.4295 21.0454 22.1132 21.233 21.9105C22.951 20.0533 23.9 17.7528 23.9 15.3282C23.9 12.7462 22.9793 10.4073 21.2405 8.5963C21.0492 8.39711 21.0557 8.08059 21.2548 7.88934ZM18.9545 9.88934C19.1537 9.69808 19.4702 9.70451 19.6615 9.9037C21.0584 11.3586 21.8 13.2426 21.8 15.3059C21.8 17.2593 21.0372 19.1085 19.667 20.5895C19.4795 20.7922 19.1632 20.8046 18.9605 20.617C18.7578 20.4295 18.7454 20.1132 18.933 19.9105C20.1363 18.6097 20.8 17.0008 20.8 15.3059C20.8 13.4981 20.1564 11.863 18.9402 10.5963C18.7489 10.3971 18.7553 10.0806 18.9545 9.88934ZM16.9502 11.6165C17.162 11.4393 17.4773 11.4674 17.6545 11.6792C18.4717 12.6562 18.903 13.9139 18.903 15.2863C18.903 16.5872 18.4594 17.8216 17.6598 18.8137C17.4866 19.0288 17.1718 19.0626 16.9568 18.8893C16.7418 18.716 16.7079 18.4013 16.8812 18.1863C17.5388 17.3703 17.903 16.3568 17.903 15.2863C17.903 14.1425 17.5499 13.1128 16.8875 12.3208C16.7103 12.109 16.7384 11.7936 16.9502 11.6165Z" fill="white"/>
</svg>
