<svg width="29" height="30" viewBox="0 0 29 30" fill="none" xmlns="http://www.w3.org/2000/svg">
<rect y="0.5" width="29" height="29" rx="6" fill="#3396FD"/>
<path fill-rule="evenodd" clip-rule="evenodd" d="M19 7C20.933 7 22.5 8.567 22.5 10.5V19.5C22.5 21.433 20.933 23 19 23H10C8.067 23 6.5 21.433 6.5 19.5V10.5C6.5 8.567 8.067 7 10 7H19ZM19 8H10C8.61929 8 7.5 9.11929 7.5 10.5V19.5C7.5 19.5847 7.50422 19.6685 7.51245 19.751L11.3417 15.9231C11.7322 15.5326 12.3653 15.5326 12.7559 15.9231L13.9784 17.1456L17.476 13.648C17.8665 13.2575 18.4997 13.2575 18.8902 13.648L21.5 16.258V10.5C21.5 9.11929 20.3807 8 19 8ZM14.5 12C14.5 10.8954 13.6046 10 12.5 10C11.3954 10 10.5 10.8954 10.5 12C10.5 13.1046 11.3954 14 12.5 14C13.6046 14 14.5 13.1046 14.5 12Z" fill="white"/>
</svg>
