<svg width="27" height="26" viewBox="0 0 27 26" fill="none" xmlns="http://www.w3.org/2000/svg">
<path fill-rule="evenodd" clip-rule="evenodd" d="M22.2682 4.45045C19.9125 2.03656 16.6907 0.649994 13.2488 0.649994C9.80807 0.649994 6.58629 2.03656 4.23059 4.45045C3.99915 4.6876 4.00378 5.06747 4.24094 5.29891C4.47809 5.53035 4.85796 5.52572 5.0894 5.28856C7.22153 3.10377 10.1348 1.84999 13.2488 1.84999L13.5951 1.85514C16.5788 1.94414 19.3562 3.18468 21.4094 5.28856C21.6408 5.52572 22.0207 5.53035 22.2579 5.29891C22.495 5.06747 22.4996 4.6876 22.2682 4.45045ZM22.25 13.25C22.25 8.27943 18.2206 4.24999 13.25 4.24999C8.27943 4.24999 4.24999 8.27943 4.24999 13.25C4.24999 18.2206 8.27943 22.25 13.25 22.25C18.2206 22.25 22.25 18.2206 22.25 13.25ZM1.13352 9.78172C1.22456 9.4631 1.55665 9.27861 1.87527 9.36965C2.19389 9.46069 2.37838 9.79278 2.28734 10.1114C1.99825 11.1231 1.84999 12.1764 1.84999 13.25C1.84999 18.4611 5.37661 22.9714 10.3448 24.2766C10.6653 24.3608 10.8568 24.6889 10.7726 25.0094C10.6884 25.3299 10.3603 25.5215 10.0399 25.4372C4.54744 23.9943 0.649994 19.0098 0.649994 13.25C0.649994 12.0646 0.81387 10.9004 1.13352 9.78172ZM24.6393 9.41258C24.9582 9.32275 25.2896 9.5085 25.3794 9.82746C25.6906 10.9322 25.85 12.0808 25.85 13.25C25.85 19.0508 21.8973 24.0613 16.3514 25.4653C16.0302 25.5466 15.7039 25.3521 15.6225 25.0309C15.5412 24.7096 15.7357 24.3833 16.0569 24.302C21.0734 23.032 24.65 18.4983 24.65 13.25C24.65 12.191 24.5058 11.1519 24.2244 10.1528C24.1346 9.8338 24.3203 9.5024 24.6393 9.41258ZM13.25 5.44999C8.94217 5.44999 5.44999 8.94217 5.44999 13.25C5.44999 17.5578 8.94217 21.05 13.25 21.05C17.5578 21.05 21.05 17.5578 21.05 13.25C21.05 8.94217 17.5578 5.44999 13.25 5.44999Z" fill="#007AFF"/>
</svg>
