<svg width="25" height="25" viewBox="0 0 25 25" fill="none" xmlns="http://www.w3.org/2000/svg">
<path fill-rule="evenodd" clip-rule="evenodd" d="M21.0444 5.55128L20.938 5.429L21.4509 5.08043L21.5325 4.98411C21.7621 4.65401 21.7255 4.22359 21.451 3.94903C21.1386 3.63661 20.632 3.63661 20.3196 3.94903L19.788 4.276L19.6485 4.15462C19.0511 3.65551 18.4 3.21867 17.7052 2.85452L17.523 2.763L17.7326 2.22773L17.7691 2.12C17.8661 1.7259 17.6711 1.33249 17.3088 1.17873C16.9021 1.00609 16.4325 1.19584 16.2598 1.60254L16.039 2.15L15.8843 2.09865C15.1515 1.86972 14.3858 1.71546 13.5964 1.64524L13.393 1.631L13.4 1.00004L13.3915 0.886588C13.3268 0.485914 12.9936 0.199997 12.6 0.199997C12.1582 0.199997 11.8 0.558169 11.8 0.999997V1.63L11.6022 1.64465C10.8105 1.71584 10.0431 1.87091 9.30972 2.10093L9.12901 2.16L8.9536 1.61212L8.90323 1.51014C8.69316 1.16287 8.27705 1.02262 7.91216 1.17004C7.50251 1.33555 7.30459 1.80182 7.4701 2.21148L7.65801 2.771L7.48904 2.85695C6.79604 3.22124 6.14672 3.65735 5.5513 4.15564L5.41601 4.272L4.98045 3.84906L4.88413 3.76754C4.55402 3.53787 4.12361 3.57447 3.84905 3.84903C3.53663 4.16145 3.53663 4.66798 3.84905 4.9804L4.28401 5.402L4.15464 5.55148C3.65553 6.14888 3.21869 6.80002 2.85453 7.49486L2.76501 7.671L2.22774 7.46737L2.12002 7.43088C1.72592 7.33387 1.33251 7.52893 1.17874 7.89119C1.00611 8.29789 1.19586 8.76754 1.60256 8.94018L2.15301 9.15L2.0987 9.31563C1.85089 10.1088 1.69056 10.9407 1.62958 11.8H1.00006L0.886603 11.8085C0.485929 11.8732 0.200012 12.2065 0.200012 12.6C0.200012 13.0418 0.558184 13.4 1.00001 13.4L1.63001 13.399L1.64449 13.5959C1.71536 14.3857 1.8697 15.1512 2.09857 15.8829L2.15401 16.05L1.60262 16.2598L1.50149 16.312C1.15794 16.5281 1.02497 16.9466 1.17874 17.3088C1.35138 17.7155 1.82103 17.9053 2.22773 17.7326L2.76501 17.528L2.85382 17.705C3.2186 18.3999 3.65557 19.051 4.15504 19.648L4.27801 19.789L3.84908 20.2196L3.76756 20.3159C3.53789 20.646 3.57448 21.0764 3.84905 21.351C4.16146 21.6634 4.668 21.6634 4.98042 21.351L5.40801 20.921L5.5515 21.0454C6.14889 21.5445 6.80003 21.9813 7.49487 22.3455L7.67801 22.437L7.46739 22.9723L7.4309 23.08C7.33388 23.4741 7.52895 23.8675 7.8912 24.0213C8.29791 24.1939 8.76756 24.0042 8.94019 23.5974L9.15701 23.048L9.31565 23.1013C10.0482 23.3302 10.8137 23.4845 11.6034 23.5553L11.8 23.569V24.2L11.8085 24.3134C11.8732 24.7141 12.2065 25 12.6 25C13.0418 25 13.4 24.6418 13.4 24.2L13.399 23.569L13.597 23.5554C14.3889 23.4843 15.1566 23.3292 15.8902 23.0991L16.065 23.04L16.2464 23.5879L16.2968 23.6899C16.5069 24.0371 16.923 24.1774 17.2879 24.03C17.6975 23.8644 17.8954 23.3982 17.7299 22.9885L17.537 22.43L17.711 22.343C18.404 21.9788 19.0533 21.5426 19.6487 21.0444L19.783 20.927L20.2196 21.3509L20.3159 21.4325C20.646 21.6621 21.0764 21.6255 21.351 21.351C21.6634 21.0385 21.6634 20.532 21.351 20.2196L20.915 19.798L21.0454 19.6485C21.5445 19.0511 21.9813 18.4 22.3455 17.7051L22.429 17.537L22.9723 17.7326L23.08 17.7691C23.4741 17.8661 23.8675 17.6711 24.0213 17.3088C24.1939 16.9021 24.0042 16.4325 23.5975 16.2598L23.044 16.054L23.0477 16.0512C23.3063 15.268 23.4792 14.4459 23.5553 13.5964L23.569 13.399L24.2 13.4L24.3134 13.3915C24.7141 13.3268 25 12.9935 25 12.6C25 12.1582 24.6418 11.8 24.2 11.8L23.569 11.799L23.5554 11.6021C23.4842 10.8105 23.3291 10.0431 23.0991 9.3097L23.048 9.156L23.5879 8.95359L23.6899 8.90322C24.0371 8.69315 24.1774 8.27703 24.03 7.91215C23.8645 7.50249 23.3982 7.30458 22.9885 7.47009L22.431 7.663L22.3431 7.48902C21.9788 6.79602 21.5427 6.1467 21.0444 5.55128ZM12.6 2.8C11.0289 2.8 9.54422 3.16969 8.22809 3.82683L10.3852 7.56414C11.0628 7.26569 11.8121 7.1 12.6 7.1C15.4345 7.1 17.7682 9.24422 18.0676 11.9992H22.3819C22.0715 6.8666 17.8107 2.8 12.6 2.8ZM7.18907 4.42793C4.54392 6.18288 2.80001 9.18778 2.80001 12.6C2.80001 16.0122 4.54392 19.0171 7.18907 20.7721L9.34717 17.0354C7.98449 16.0344 7.10001 14.4205 7.10001 12.6C7.10001 10.7795 7.98449 9.1656 9.34717 8.16456L7.18907 4.42793ZM22.382 13.1998H18.0677C17.7688 15.9553 15.4349 18.1 12.6 18.1C11.8121 18.1 11.0628 17.9343 10.3852 17.6359L8.22809 21.3732C9.54422 22.0303 11.0289 22.4 12.6 22.4C17.811 22.4 22.072 18.3329 22.382 13.1998ZM8.30001 12.6C8.30001 10.2252 10.2252 8.3 12.6 8.3C14.9748 8.3 16.9 10.2252 16.9 12.6C16.9 14.9748 14.9748 16.9 12.6 16.9C10.2252 16.9 8.30001 14.9748 8.30001 12.6Z" fill="#545458" fill-opacity="0.65"/>
</svg>
