<svg width="29" height="30" viewBox="0 0 29 30" fill="none" xmlns="http://www.w3.org/2000/svg">
<rect y="0.5" width="29" height="29" rx="6" fill="#FE8D35"/>
<path fill-rule="evenodd" clip-rule="evenodd" d="M19.5 13.25C19.5 9.52208 16.4779 6.5 12.75 6.5C9.02208 6.5 6 9.52208 6 13.25C6 16.9779 9.02208 20 12.75 20C14.1626 20 15.4739 19.5661 16.5578 18.8242L20.7123 22.9801L20.8138 23.0712C21.3046 23.4661 22.0245 23.4357 22.4801 22.9801C22.9682 22.4919 22.9682 21.7005 22.4801 21.2123L18.3242 17.0578C19.0661 15.9739 19.5 14.6626 19.5 13.25ZM8 13.25C8 10.6266 10.1266 8.5 12.75 8.5C15.3734 8.5 17.5 10.6266 17.5 13.25C17.5 15.8734 15.3734 18 12.75 18C10.1266 18 8 15.8734 8 13.25Z" fill="white"/>
</svg>
